<?xml version="1.0" encoding="UTF-8"?><svg id="b" xmlns="http://www.w3.org/2000/svg" viewBox="0 0 328.62 175.67"><defs><style>.e,.f,.g,.h,.i,.j,.k,.l,.m,.n{isolation:isolate;}.e,.g,.h,.l,.m,.n{font-family:Noteworthy-Bold, Noteworthy;font-weight:700;}.e,.h,.l,.m{font-size:72px;}.e,.o,.l,.n{fill:#219ebc;}.g,.h,.m{fill:none;stroke:#093d57;stroke-miterlimit:10;}.g,.n{font-size:110.17px;}.i{letter-spacing:-.13em;}.i,.j,.k{font-family:MuktaMahee-Regular, 'Mukta Mahee';font-size:42.46px;}.i,.j,.k,.p{fill:#093d57;}.j{letter-spacing:-.11em;}.k{letter-spacing:-.09em;}.l,.m{letter-spacing:-.02em;}</style></defs><g id="c"><g id="d"><g class="f"><text class="n" transform="translate(78.51 127.25)"><tspan x="0" y="0">A</tspan></text><text class="g" transform="translate(78.51 127.25)"><tspan x="0" y="0">A</tspan></text><text/></g><path class="o" d="M31.92,165.5C-5.22,119.7-7.02,58.51,11.55,28.76,33.06-5.7,72.98-6.43,89.13,12.04c10.22,11.69,6.33,24.76,4.17,36.03-.9,4.68-3.18-11.14-8.66-18.98-7.49-10.7-29.05-10.03-40.44.33-14.46,13.17-22.16,22.4-27.85,49.15-8.8,41.35,9.67,76.71,15.58,86.93h0Z"/><path class="p" d="M201.45,161.16c-8.99-8.36-18.88-24.95-46.42-27.42-33.55-3.01-41.65,9.4-68.89,10.03-29.05.67-42.67-24.64-42.83-46.81-.3-41.46,27.29-52.82,26.36-52.83-6.29-.05-43.43,8.69-41.93,64.86.8,29.84,28.85,59.27,55.11,57.84,24.56-1.34,33.63-11.41,68.29-17.05,28.76-4.68,52.5,13.4,50.32,11.37h0Z"/></g><text class="e" transform="translate(151.59 98.72)"><tspan x="0" y="0">Q</tspan></text><text class="h" transform="translate(151.59 98.72)"><tspan x="0" y="0">Q</tspan></text><text class="l" transform="translate(208.11 98.72)"><tspan x="0" y="0">U</tspan></text><text class="m" transform="translate(208.11 98.72)"><tspan x="0" y="0">U</tspan></text><text class="e" transform="translate(251.58 98.72)"><tspan x="0" y="0">A</tspan></text><text class="h" transform="translate(251.58 98.72)"><tspan x="0" y="0">A</tspan></text><g class="f"><text class="i" transform="translate(210.41 136.94)"><tspan x="0" y="0">V</tspan></text><text class="k" transform="translate(229.35 136.94)"><tspan x="0" y="0">e</tspan></text><text class="k" transform="translate(246.93 136.94)"><tspan x="0" y="0">n</tspan></text><text class="k" transform="translate(265.57 136.94)"><tspan x="0" y="0">tu</tspan></text><text class="j" transform="translate(296.26 136.94)"><tspan x="0" y="0">r</tspan></text><text class="k" transform="translate(307.22 136.94)"><tspan x="0" y="0">e</tspan></text></g></g></svg>