<?xml version="1.0" encoding="UTF-8"?><svg id="b" xmlns="http://www.w3.org/2000/svg" viewBox="0 0 405.2 145.01"><defs><style>.d{font-family:MuktaMahee-Regular, 'Mukta Mahee';font-size:49.32px;}.d,.e{fill:#093d57;}.f{font-family:Noteworthy-Bold, Noteworthy;font-size:68.29px;font-weight:700;stroke:#093d57;stroke-miterlimit:10;}.f,.g{fill:#219ebc;}.h{letter-spacing:-.09em;}.i{letter-spacing:-.09em;}.j{letter-spacing:-.13em;}.k{letter-spacing:-.11em;}.l{letter-spacing:-.02em;}.m{letter-spacing:0em;}</style></defs><g id="c"><text class="f" transform="translate(116.56 83.53) scale(1.05 1)"><tspan class="m" x="0" y="0">A</tspan><tspan x="51.05" y="0">Q</tspan><tspan class="l" x="104.66" y="0">U</tspan><tspan x="145.89" y="0">A</tspan></text><text class="d" transform="translate(260.43 118.33) scale(1.05 1)"><tspan class="j" x="0" y="0">V</tspan><tspan class="h" x="22" y="0">e</tspan><tspan class="i" x="42.42" y="0">n</tspan><tspan class="h" x="64.07" y="0">tu</tspan><tspan class="k" x="99.73" y="0">r</tspan><tspan class="h" x="112.46" y="0">e</tspan></text><path class="g" d="M42.12,123.96C-6.89,89.65-9.26,43.82,15.24,21.54,43.62-4.27,96.31-4.82,117.62,9.02c13.49,8.76,8.36,18.54,5.51,26.98-1.19,3.51-4.2-8.35-11.43-14.21-9.88-8.01-38.34-7.51-53.36.25-19.08,9.86-29.25,16.78-36.76,36.81-11.61,30.97,12.76,57.45,20.55,65.11Z"/><path class="e" d="M260.25,119.66c-11.86-6.26-24.91-18.68-61.27-20.53-44.27-2.25-54.96,7.04-90.91,7.51-38.34.5-56.31-18.45-56.53-35.06-.4-31.05,36.01-39.56,34.78-39.57-8.3-.04-57.32,6.51-55.34,48.58,1.05,22.35,38.07,44.39,72.73,43.32,32.41-1,44.38-8.54,90.12-12.77,37.95-3.51,69.29,10.04,66.41,8.51Z"/></g></svg>