<?xml version="1.0" encoding="UTF-8"?><svg id="b" xmlns="http://www.w3.org/2000/svg" viewBox="0 0 201.59 175.67"><defs><style>.e,.f,.g{isolation:isolate;}.f{fill:none;stroke:#093d57;stroke-miterlimit:10;}.f,.g{font-family:Noteworthy-Bold, Noteworthy;font-size:110.17px;font-weight:700;}.h,.g{fill:#219ebc;}.i{fill:#093d57;}</style></defs><g id="c"><g id="d"><g class="e"><text class="g" transform="translate(78.51 127.25)"><tspan x="0" y="0">A</tspan></text><text class="f" transform="translate(78.51 127.25)"><tspan x="0" y="0">A</tspan></text><text/></g><path class="h" d="M31.92,165.5C-5.22,119.7-7.02,58.51,11.55,28.76,33.06-5.7,72.98-6.43,89.13,12.04c10.22,11.69,6.33,24.76,4.17,36.03-.9,4.68-3.18-11.14-8.66-18.98-7.49-10.7-29.05-10.03-40.44.33-14.46,13.17-22.16,22.4-27.85,49.15-8.8,41.35,9.67,76.71,15.58,86.93h0Z"/><path class="i" d="M201.45,161.16c-8.99-8.36-18.88-24.95-46.42-27.42-33.55-3.01-41.65,9.4-68.89,10.03-29.05.67-42.67-24.64-42.83-46.81-.3-41.46,27.29-52.82,26.36-52.83-6.29-.05-43.43,8.69-41.93,64.86.8,29.84,28.85,59.27,55.11,57.84,24.56-1.34,33.63-11.41,68.29-17.05,28.76-4.68,52.5,13.4,50.32,11.37h0Z"/></g></g></svg>